solid 120ventflap0.2
facet normal 1.0 0.0 0.0
  outer loop
    vertex 103.99999999999999 -0.7244443697168013 -0.19411428382689025
    vertex 103.99999999999999 -0.7244443697168012 0.19411428382689075
    vertex 103.99999999999999 -0.75 9.184850993605148e-17
  endloop
endfacet
facet normal 1.0 0.0 0.0
  outer loop
    vertex 103.99999999999999 -0.7244443697168012 0.19411428382689075
    vertex 103.99999999999999 -0.7244443697168013 -0.19411428382689025
    vertex 103.99999999999999 -0.649519052838329 -0.3749999999999998
  endloop
endfacet
facet normal 1.0 0.0 0.0
  outer loop
    vertex 103.99999999999999 -0.7244443697168012 0.19411428382689075
    vertex 103.99999999999999 -0.649519052838329 -0.3749999999999998
    vertex 103.99999999999999 -0.6495190528383289 0.3750000000000002
  endloop
endfacet
facet normal 1.0 0.0 0.0
  outer loop
    vertex 103.99999999999999 -0.6495190528383289 0.3750000000000002
    vertex 103.99999999999999 -0.649519052838329 -0.3749999999999998
    vertex 103.99999999999999 -0.5303300858899109 -0.5303300858899103
  endloop
endfacet
facet normal 1.0 0.0 0.0
  outer loop
    vertex 103.99999999999999 -0.6495190528383289 0.3750000000000002
    vertex 103.99999999999999 -0.5303300858899109 -0.5303300858899103
    vertex 103.99999999999999 -0.5303300858899106 0.5303300858899106
  endloop
endfacet
facet normal 1.0 0.0 0.0
  outer loop
    vertex 103.99999999999999 -0.5303300858899106 0.5303300858899106
    vertex 103.99999999999999 -0.5303300858899109 -0.5303300858899103
    vertex 103.99999999999999 -0.37500000000000033 -0.6495190528383289
  endloop
endfacet
facet normal 1.0 0.0 0.0
  outer loop
    vertex 103.99999999999999 -0.5303300858899106 0.5303300858899106
    vertex 103.99999999999999 -0.37500000000000033 -0.6495190528383289
    vertex 103.99999999999999 -0.3749999999999998 0.649519052838329
  endloop
endfacet
facet normal 1.0 0.0 0.0
  outer loop
    vertex 103.99999999999999 -0.3749999999999998 0.649519052838329
    vertex 103.99999999999999 -0.37500000000000033 -0.6495190528383289
    vertex 103.99999999999999 -0.19411428382689114 -0.724444369716801
  endloop
endfacet
facet normal 1.0 0.0 0.0
  outer loop
    vertex 103.99999999999999 -0.3749999999999998 0.649519052838329
    vertex 103.99999999999999 -0.19411428382689114 -0.724444369716801
    vertex 103.99999999999999 -0.19411428382689047 0.7244443697168013
  endloop
endfacet
facet normal 1.0 0.0 0.0
  outer loop
    vertex 103.99999999999999 -0.19411428382689047 0.7244443697168013
    vertex 103.99999999999999 -0.19411428382689114 -0.724444369716801
    vertex 103.99999999999999 -1.3777276490407721e-16 -0.75
  endloop
endfacet
facet normal 1.0 0.0 0.0
  outer loop
    vertex 103.99999999999999 -0.19411428382689047 0.7244443697168013
    vertex 103.99999999999999 -1.3777276490407721e-16 -0.75
    vertex 103.99999999999999 4.592425496802574e-17 0.75
  endloop
endfacet
facet normal 1.0 0.0 0.0
  outer loop
    vertex 103.99999999999999 4.592425496802574e-17 0.75
    vertex 103.99999999999999 -1.3777276490407721e-16 -0.75
    vertex 103.99999999999999 0.1941142838268902 -0.7244443697168013
  endloop
endfacet
facet normal 1.0 0.0 0.0
  outer loop
    vertex 103.99999999999999 4.592425496802574e-17 0.75
    vertex 103.99999999999999 0.1941142838268902 -0.7244443697168013
    vertex 103.99999999999999 0.19411428382689072 0.7244443697168012
  endloop
endfacet
facet normal 1.0 0.0 0.0
  outer loop
    vertex 103.99999999999999 0.19411428382689072 0.7244443697168012
    vertex 103.99999999999999 0.1941142838268902 -0.7244443697168013
    vertex 103.99999999999999 0.3749999999999995 -0.6495190528383292
  endloop
endfacet
facet normal 1.0 0.0 0.0
  outer loop
    vertex 103.99999999999999 0.19411428382689072 0.7244443697168012
    vertex 103.99999999999999 0.3749999999999995 -0.6495190528383292
    vertex 103.99999999999999 0.37500000000000006 0.6495190528383289
  endloop
endfacet
facet normal 1.0 0.0 0.0
  outer loop
    vertex 103.99999999999999 0.37500000000000006 0.6495190528383289
    vertex 103.99999999999999 0.3749999999999995 -0.6495190528383292
    vertex 103.99999999999999 0.5303300858899105 -0.5303300858899107
  endloop
endfacet
facet normal 1.0 0.0 0.0
  outer loop
    vertex 103.99999999999999 0.37500000000000006 0.6495190528383289
    vertex 103.99999999999999 0.5303300858899105 -0.5303300858899107
    vertex 103.99999999999999 0.5303300858899106 0.5303300858899106
  endloop
endfacet
facet normal 1.0 0.0 0.0
  outer loop
    vertex 103.99999999999999 0.5303300858899106 0.5303300858899106
    vertex 103.99999999999999 0.5303300858899105 -0.5303300858899107
    vertex 103.99999999999999 0.6495190528383288 -0.37500000000000033
  endloop
endfacet
facet normal 1.0 0.0 0.0
  outer loop
    vertex 103.99999999999999 0.5303300858899106 0.5303300858899106
    vertex 103.99999999999999 0.6495190528383288 -0.37500000000000033
    vertex 103.99999999999999 0.649519052838329 0.37499999999999994
  endloop
endfacet
facet normal 1.0 0.0 0.0
  outer loop
    vertex 103.99999999999999 0.649519052838329 0.37499999999999994
    vertex 103.99999999999999 0.6495190528383288 -0.37500000000000033
    vertex 103.99999999999999 0.724444369716801 -0.19411428382689117
  endloop
endfacet
facet normal 1.0 0.0 0.0
  outer loop
    vertex 103.99999999999999 0.649519052838329 0.37499999999999994
    vertex 103.99999999999999 0.724444369716801 -0.19411428382689117
    vertex 103.99999999999999 0.7244443697168013 0.19411428382689053
  endloop
endfacet
facet normal 1.0 0.0 0.0
  outer loop
    vertex 103.99999999999999 0.7244443697168013 0.19411428382689053
    vertex 103.99999999999999 0.724444369716801 -0.19411428382689117
    vertex 103.99999999999999 0.75 0.0
  endloop
endfacet
facet normal -0.0 1.0 -0.0
  outer loop
    vertex 3.000000000000085 6.000000000000001 0.7244443697168023
    vertex 101.0 6.000000000000001 0.0
    vertex 3.000000000000085 6.000000000000001 0.0
  endloop
endfacet
facet normal -0.0 1.0 -0.0
  outer loop
    vertex 101.0 6.000000000000001 0.0
    vertex 3.000000000000085 6.000000000000001 0.7244443697168023
    vertex 101.0 6.000000000000001 0.7244443697168023
  endloop
endfacet
facet normal 0.0 -1.0 0.0
  outer loop
    vertex 101.0 -6.0 0.7244443697168023
    vertex 3.000000000000085 -6.0 0.0
    vertex 101.0 -6.0 0.0
  endloop
endfacet
facet normal 0.0 -1.0 0.0
  outer loop
    vertex 3.000000000000085 -6.0 0.0
    vertex 101.0 -6.0 0.7244443697168023
    vertex 3.000000000000085 -6.0 0.7244443697168023
  endloop
endfacet
facet normal 0.0 -1.0 0.0
  outer loop
    vertex 101.0 -6.0 0.0
    vertex 3.0000000000001017 -6.0 -0.7500000000000003
    vertex 101.0 -6.0 -0.7500000000000003
  endloop
endfacet
facet normal 0.0 -1.0 0.0
  outer loop
    vertex 3.0000000000001017 -6.0 -0.7500000000000003
    vertex 101.0 -6.0 0.0
    vertex 3.000000000000085 -6.0 0.0
  endloop
endfacet
facet normal -0.0 1.0 -0.0
  outer loop
    vertex 3.000000000000085 6.000000000000001 0.0
    vertex 101.0 6.000000000000001 -0.7500000000000003
    vertex 3.0000000000001017 6.000000000000001 -0.7500000000000003
  endloop
endfacet
facet normal -0.0 1.0 -0.0
  outer loop
    vertex 101.0 6.000000000000001 -0.7500000000000003
    vertex 3.000000000000085 6.000000000000001 0.0
    vertex 101.0 6.000000000000001 0.0
  endloop
endfacet
facet normal -1.6186032106461158e-17 -9.107029337571036e-17 1.0
  outer loop
    vertex 3.000000000000085 -6.0 0.7244443697168023
    vertex 101.0 -0.19411428382689128 0.7244443697168044
    vertex 3.0 -0.19411428382689047 0.7244443697168013
  endloop
endfacet
facet normal -1.6186032106461158e-17 -9.107029337571036e-17 1.0
  outer loop
    vertex 101.0 -0.19411428382689128 0.7244443697168044
    vertex 3.000000000000085 -6.0 0.7244443697168023
    vertex 101.0 -6.0 0.7244443697168023
  endloop
endfacet
facet normal -2.4339271751891594e-17 1.5132658082014204e-15 1.0
  outer loop
    vertex 3.0 -0.19411428382689047 0.7244443697168013
    vertex -3.524958103184872e-16 0.19411428382689072 0.7244443697168012
    vertex -3.524958103184872e-16 -0.19411428382689047 0.7244443697168013
  endloop
endfacet
facet normal -2.4339271751891594e-17 1.5132658082014204e-15 1.0
  outer loop
    vertex -3.524958103184872e-16 0.19411428382689072 0.7244443697168012
    vertex 3.0 -0.19411428382689047 0.7244443697168013
    vertex 3.0 0.19411428382689072 0.7244443697168012
  endloop
endfacet
facet normal -2.4339271751891594e-17 1.5132658082014204e-15 1.0
  outer loop
    vertex 3.0 0.19411428382689072 0.7244443697168012
    vertex 3.0 -0.19411428382689047 0.7244443697168013
    vertex 101.0 -0.19411428382689128 0.7244443697168044
  endloop
endfacet
facet normal -2.4339271751891594e-17 1.5132658082014204e-15 1.0
  outer loop
    vertex 3.0 0.19411428382689072 0.7244443697168012
    vertex 101.0 -0.19411428382689128 0.7244443697168044
    vertex 101.0 0.1941142838268907 0.7244443697168028
  endloop
endfacet
facet normal -8.542628056187835e-18 -5.312433780249758e-17 1.0
  outer loop
    vertex 101.0 0.1941142838268907 0.7244443697168028
    vertex 3.000000000000085 6.000000000000001 0.7244443697168023
    vertex 3.0 0.19411428382689072 0.7244443697168012
  endloop
endfacet
facet normal -8.542628056187835e-18 -5.312433780249758e-17 1.0
  outer loop
    vertex 3.000000000000085 6.000000000000001 0.7244443697168023
    vertex 101.0 0.1941142838268907 0.7244443697168028
    vertex 101.0 6.000000000000001 0.7244443697168023
  endloop
endfacet
facet normal 1.0 -1.6554250517629594e-15 2.040832107029273e-15
  outer loop
    vertex 101.0 -1.3777276490407721e-16 -0.75
    vertex 101.0 -6.0 0.0
    vertex 101.0 -6.0 -0.7500000000000003
  endloop
endfacet
facet normal 1.0 -1.6554250517629594e-15 2.040832107029273e-15
  outer loop
    vertex 101.0 -6.0 0.0
    vertex 101.0 -1.3777276490407721e-16 -0.75
    vertex 101.0 -0.19411428382689114 -0.724444369716801
  endloop
endfacet
facet normal 1.0 -1.6554250517629594e-15 2.040832107029273e-15
  outer loop
    vertex 101.0 -6.0 0.0
    vertex 101.0 -0.19411428382689114 -0.724444369716801
    vertex 101.0 -6.0 0.7244443697168023
  endloop
endfacet
facet normal 1.0 -1.6554250517629594e-15 2.040832107029273e-15
  outer loop
    vertex 101.0 -6.0 0.7244443697168023
    vertex 101.0 -0.19411428382689114 -0.724444369716801
    vertex 101.0 -0.37500000000000033 -0.6495190528383289
  endloop
endfacet
facet normal 1.0 -1.6554250517629594e-15 2.040832107029273e-15
  outer loop
    vertex 101.0 -6.0 0.7244443697168023
    vertex 101.0 -0.37500000000000033 -0.6495190528383289
    vertex 101.0 -0.5303300858899109 -0.5303300858899103
  endloop
endfacet
facet normal 1.0 -1.6554250517629594e-15 2.040832107029273e-15
  outer loop
    vertex 101.0 -6.0 0.7244443697168023
    vertex 101.0 -0.5303300858899109 -0.5303300858899103
    vertex 101.0 -0.649519052838329 -0.3749999999999998
  endloop
endfacet
facet normal 1.0 -1.6554250517629594e-15 2.040832107029273e-15
  outer loop
    vertex 101.0 -6.0 0.7244443697168023
    vertex 101.0 -0.649519052838329 -0.3749999999999998
    vertex 101.0 -0.7244443697168013 -0.19411428382689025
  endloop
endfacet
facet normal 1.0 -1.6554250517629594e-15 2.040832107029273e-15
  outer loop
    vertex 101.0 -6.0 0.7244443697168023
    vertex 101.0 -0.7244443697168013 -0.19411428382689025
    vertex 101.0 -0.75 4.592425496802574e-17
  endloop
endfacet
facet normal 1.0 -1.6554250517629594e-15 2.040832107029273e-15
  outer loop
    vertex 101.0 -6.0 0.7244443697168023
    vertex 101.0 -0.3749999999999998 0.649519052838329
    vertex 101.0 -0.19411428382689128 0.7244443697168044
  endloop
endfacet
facet normal 1.0 -1.6554250517629594e-15 2.040832107029273e-15
  outer loop
    vertex 101.0 -0.3749999999999998 0.649519052838329
    vertex 101.0 -6.0 0.7244443697168023
    vertex 101.0 -0.5303300858899106 0.5303300858899106
  endloop
endfacet
facet normal 1.0 -1.6554250517629594e-15 2.040832107029273e-15
  outer loop
    vertex 101.0 -0.5303300858899106 0.5303300858899106
    vertex 101.0 -6.0 0.7244443697168023
    vertex 101.0 -0.6495190528383289 0.3750000000000002
  endloop
endfacet
facet normal 1.0 -1.6554250517629594e-15 2.040832107029273e-15
  outer loop
    vertex 101.0 -0.6495190528383289 0.3750000000000002
    vertex 101.0 -6.0 0.7244443697168023
    vertex 101.0 -0.7244443697168012 0.19411428382689075
  endloop
endfacet
facet normal 1.0 -1.6554250517629594e-15 2.040832107029273e-15
  outer loop
    vertex 101.0 -0.7244443697168012 0.19411428382689075
    vertex 101.0 -6.0 0.7244443697168023
    vertex 101.0 -0.75 4.592425496802574e-17
  endloop
endfacet
facet normal -1.0 1.630711503999393e-14 -4.1355608560724354e-15
  outer loop
    vertex 3.000000000000085 6.000000000000001 0.7244443697168023
    vertex 3.0 0.37500000000000006 0.6495190528383289
    vertex 3.0 0.19411428382689072 0.7244443697168012
  endloop
endfacet
facet normal -1.0 1.630711503999393e-14 -4.1355608560724354e-15
  outer loop
    vertex 3.0 0.37500000000000006 0.6495190528383289
    vertex 3.000000000000085 6.000000000000001 0.7244443697168023
    vertex 3.0 0.5303300858899106 0.5303300858899106
  endloop
endfacet
facet normal -1.0 1.630711503999393e-14 -4.1355608560724354e-15
  outer loop
    vertex 3.0 0.5303300858899106 0.5303300858899106
    vertex 3.000000000000085 6.000000000000001 0.7244443697168023
    vertex 3.0 0.649519052838329 0.37499999999999994
  endloop
endfacet
facet normal -1.0 1.630711503999393e-14 -4.1355608560724354e-15
  outer loop
    vertex 3.0 0.649519052838329 0.37499999999999994
    vertex 3.000000000000085 6.000000000000001 0.7244443697168023
    vertex 3.0 0.7244443697168013 0.19411428382689053
  endloop
endfacet
facet normal -1.0 1.630711503999393e-14 -4.1355608560724354e-15
  outer loop
    vertex 3.0 0.7244443697168013 0.19411428382689053
    vertex 3.000000000000085 6.000000000000001 0.7244443697168023
    vertex 3.0 0.75 0.0
  endloop
endfacet
facet normal -1.0 1.630711503999393e-14 -4.1355608560724354e-15
  outer loop
    vertex 3.0 0.1941142838268902 -0.7244443697168013
    vertex 3.0000000000001017 6.000000000000001 -0.7500000000000003
    vertex 3.0 -1.3777276490407721e-16 -0.75
  endloop
endfacet
facet normal -1.0 1.630711503999393e-14 -4.1355608560724354e-15
  outer loop
    vertex 3.0000000000001017 6.000000000000001 -0.7500000000000003
    vertex 3.0 0.1941142838268902 -0.7244443697168013
    vertex 3.0 0.3749999999999995 -0.6495190528383292
  endloop
endfacet
facet normal -1.0 1.630711503999393e-14 -4.1355608560724354e-15
  outer loop
    vertex 3.0000000000001017 6.000000000000001 -0.7500000000000003
    vertex 3.0 0.3749999999999995 -0.6495190528383292
    vertex 3.0 0.5303300858899105 -0.5303300858899107
  endloop
endfacet
facet normal -1.0 1.630711503999393e-14 -4.1355608560724354e-15
  outer loop
    vertex 3.0000000000001017 6.000000000000001 -0.7500000000000003
    vertex 3.0 0.5303300858899105 -0.5303300858899107
    vertex 3.0 0.6495190528383288 -0.37500000000000033
  endloop
endfacet
facet normal -1.0 1.630711503999393e-14 -4.1355608560724354e-15
  outer loop
    vertex 3.0000000000001017 6.000000000000001 -0.7500000000000003
    vertex 3.0 0.6495190528383288 -0.37500000000000033
    vertex 3.0 0.724444369716801 -0.19411428382689117
  endloop
endfacet
facet normal -1.0 1.630711503999393e-14 -4.1355608560724354e-15
  outer loop
    vertex 3.0000000000001017 6.000000000000001 -0.7500000000000003
    vertex 3.0 0.724444369716801 -0.19411428382689117
    vertex 3.0 0.75 0.0
  endloop
endfacet
facet normal -1.0 1.630711503999393e-14 -4.1355608560724354e-15
  outer loop
    vertex 3.0000000000001017 6.000000000000001 -0.7500000000000003
    vertex 3.0 0.75 0.0
    vertex 3.000000000000085 6.000000000000001 0.7244443697168023
  endloop
endfacet
facet normal -1.0 1.630711503999393e-14 -4.1355608560724354e-15
  outer loop
    vertex 3.0000000000001017 6.000000000000001 -0.7500000000000003
    vertex 3.000000000000085 6.000000000000001 0.7244443697168023
    vertex 3.000000000000085 6.000000000000001 0.0
  endloop
endfacet
facet normal -1.0 -1.488013949212804e-14 -1.7437985760313524e-14
  outer loop
    vertex 3.0 -0.19411428382689047 0.7244443697168013
    vertex 3.000000000000085 -6.0 0.0
    vertex 3.000000000000085 -6.0 0.7244443697168023
  endloop
endfacet
facet normal -1.0 -1.488013949212804e-14 -1.7437985760313524e-14
  outer loop
    vertex 3.000000000000085 -6.0 0.0
    vertex 3.0 -0.19411428382689047 0.7244443697168013
    vertex 3.0000000000001017 -6.0 -0.7500000000000003
  endloop
endfacet
facet normal -1.0 -1.488013949212804e-14 -1.7437985760313524e-14
  outer loop
    vertex 3.0000000000001017 -6.0 -0.7500000000000003
    vertex 3.0 -0.19411428382689047 0.7244443697168013
    vertex 3.0 -0.3749999999999998 0.649519052838329
  endloop
endfacet
facet normal -1.0 -1.488013949212804e-14 -1.7437985760313524e-14
  outer loop
    vertex 3.0000000000001017 -6.0 -0.7500000000000003
    vertex 3.0 -0.3749999999999998 0.649519052838329
    vertex 3.0 -0.5303300858899106 0.5303300858899106
  endloop
endfacet
facet normal -1.0 -1.488013949212804e-14 -1.7437985760313524e-14
  outer loop
    vertex 3.0000000000001017 -6.0 -0.7500000000000003
    vertex 3.0 -0.5303300858899106 0.5303300858899106
    vertex 3.0 -0.6495190528383289 0.3750000000000002
  endloop
endfacet
facet normal -1.0 -1.488013949212804e-14 -1.7437985760313524e-14
  outer loop
    vertex 3.0000000000001017 -6.0 -0.7500000000000003
    vertex 3.0 -0.6495190528383289 0.3750000000000002
    vertex 3.0 -0.7244443697168012 0.19411428382689075
  endloop
endfacet
facet normal -1.0 -1.488013949212804e-14 -1.7437985760313524e-14
  outer loop
    vertex 3.0000000000001017 -6.0 -0.7500000000000003
    vertex 3.0 -0.7244443697168012 0.19411428382689075
    vertex 3.0 -0.75 9.184850993605148e-17
  endloop
endfacet
facet normal -1.0 -1.488013949212804e-14 -1.7437985760313524e-14
  outer loop
    vertex 3.0000000000001017 -6.0 -0.7500000000000003
    vertex 3.0 -0.37500000000000033 -0.6495190528383289
    vertex 3.0000000000001017 -0.19411428382689067 -0.7500000000000003
  endloop
endfacet
facet normal -1.0 -1.488013949212804e-14 -1.7437985760313524e-14
  outer loop
    vertex 3.0 -0.37500000000000033 -0.6495190528383289
    vertex 3.0000000000001017 -6.0 -0.7500000000000003
    vertex 3.0 -0.5303300858899109 -0.5303300858899103
  endloop
endfacet
facet normal -1.0 -1.488013949212804e-14 -1.7437985760313524e-14
  outer loop
    vertex 3.0 -0.5303300858899109 -0.5303300858899103
    vertex 3.0000000000001017 -6.0 -0.7500000000000003
    vertex 3.0 -0.649519052838329 -0.3749999999999998
  endloop
endfacet
facet normal -1.0 -1.488013949212804e-14 -1.7437985760313524e-14
  outer loop
    vertex 3.0 -0.649519052838329 -0.3749999999999998
    vertex 3.0000000000001017 -6.0 -0.7500000000000003
    vertex 3.0 -0.7244443697168013 -0.19411428382689025
  endloop
endfacet
facet normal -1.0 -1.488013949212804e-14 -1.7437985760313524e-14
  outer loop
    vertex 3.0 -0.7244443697168013 -0.19411428382689025
    vertex 3.0000000000001017 -6.0 -0.7500000000000003
    vertex 3.0 -0.75 9.184850993605148e-17
  endloop
endfacet
facet normal -1.0 -1.488013949212804e-14 -1.7437985760313524e-14
  outer loop
    vertex 3.0000000000001017 -0.19411428382689067 -0.7500000000000003
    vertex 3.0 -0.37500000000000033 -0.6495190528383289
    vertex 3.0 -0.19411428382689114 -0.724444369716801
  endloop
endfacet
facet normal -1.0 -1.488013949212804e-14 -1.7437985760313524e-14
  outer loop
    vertex 3.0000000000001017 -0.19411428382689067 -0.7500000000000003
    vertex 3.0 -0.19411428382689114 -0.724444369716801
    vertex 3.0 -1.3777276490407721e-16 -0.75
  endloop
endfacet
facet normal -1.0 0.0 0.0
  outer loop
    vertex -3.524958103184872e-16 -0.7244443697168012 0.19411428382689075
    vertex -3.524958103184872e-16 -0.7244443697168013 -0.19411428382689025
    vertex -3.524958103184872e-16 -0.75 9.184850993605148e-17
  endloop
endfacet
facet normal -1.0 0.0 0.0
  outer loop
    vertex -3.524958103184872e-16 -0.7244443697168013 -0.19411428382689025
    vertex -3.524958103184872e-16 -0.7244443697168012 0.19411428382689075
    vertex -3.524958103184872e-16 -0.649519052838329 -0.3749999999999998
  endloop
endfacet
facet normal -1.0 0.0 0.0
  outer loop
    vertex -3.524958103184872e-16 -0.649519052838329 -0.3749999999999998
    vertex -3.524958103184872e-16 -0.7244443697168012 0.19411428382689075
    vertex -3.524958103184872e-16 -0.6495190528383289 0.3750000000000002
  endloop
endfacet
facet normal -1.0 0.0 0.0
  outer loop
    vertex -3.524958103184872e-16 -0.649519052838329 -0.3749999999999998
    vertex -3.524958103184872e-16 -0.6495190528383289 0.3750000000000002
    vertex -3.524958103184872e-16 -0.5303300858899109 -0.5303300858899103
  endloop
endfacet
facet normal -1.0 0.0 0.0
  outer loop
    vertex -3.524958103184872e-16 -0.5303300858899109 -0.5303300858899103
    vertex -3.524958103184872e-16 -0.6495190528383289 0.3750000000000002
    vertex -3.524958103184872e-16 -0.5303300858899106 0.5303300858899106
  endloop
endfacet
facet normal -1.0 0.0 0.0
  outer loop
    vertex -3.524958103184872e-16 -0.5303300858899109 -0.5303300858899103
    vertex -3.524958103184872e-16 -0.5303300858899106 0.5303300858899106
    vertex -3.524958103184872e-16 -0.37500000000000033 -0.6495190528383289
  endloop
endfacet
facet normal -1.0 0.0 0.0
  outer loop
    vertex -3.524958103184872e-16 -0.37500000000000033 -0.6495190528383289
    vertex -3.524958103184872e-16 -0.5303300858899106 0.5303300858899106
    vertex -3.524958103184872e-16 -0.3749999999999998 0.649519052838329
  endloop
endfacet
facet normal -1.0 0.0 0.0
  outer loop
    vertex -3.524958103184872e-16 -0.37500000000000033 -0.6495190528383289
    vertex -3.524958103184872e-16 -0.3749999999999998 0.649519052838329
    vertex -3.524958103184872e-16 -0.19411428382689114 -0.724444369716801
  endloop
endfacet
facet normal -1.0 0.0 0.0
  outer loop
    vertex -3.524958103184872e-16 -0.19411428382689114 -0.724444369716801
    vertex -3.524958103184872e-16 -0.3749999999999998 0.649519052838329
    vertex -3.524958103184872e-16 -0.19411428382689047 0.7244443697168013
  endloop
endfacet
facet normal -1.0 0.0 0.0
  outer loop
    vertex -3.524958103184872e-16 -0.19411428382689114 -0.724444369716801
    vertex -3.524958103184872e-16 -0.19411428382689047 0.7244443697168013
    vertex -3.524958103184872e-16 -1.3777276490407721e-16 -0.75
  endloop
endfacet
facet normal -1.0 0.0 0.0
  outer loop
    vertex -3.524958103184872e-16 -1.3777276490407721e-16 -0.75
    vertex -3.524958103184872e-16 -0.19411428382689047 0.7244443697168013
    vertex -3.524958103184872e-16 0.19411428382689072 0.7244443697168012
  endloop
endfacet
facet normal -1.0 0.0 0.0
  outer loop
    vertex -3.524958103184872e-16 -1.3777276490407721e-16 -0.75
    vertex -3.524958103184872e-16 0.19411428382689072 0.7244443697168012
    vertex -3.524958103184872e-16 0.1941142838268902 -0.7244443697168013
  endloop
endfacet
facet normal -1.0 0.0 0.0
  outer loop
    vertex -3.524958103184872e-16 0.1941142838268902 -0.7244443697168013
    vertex -3.524958103184872e-16 0.19411428382689072 0.7244443697168012
    vertex -3.524958103184872e-16 0.3749999999999995 -0.6495190528383292
  endloop
endfacet
facet normal -1.0 0.0 0.0
  outer loop
    vertex -3.524958103184872e-16 0.3749999999999995 -0.6495190528383292
    vertex -3.524958103184872e-16 0.19411428382689072 0.7244443697168012
    vertex -3.524958103184872e-16 0.37500000000000006 0.6495190528383289
  endloop
endfacet
facet normal -1.0 0.0 0.0
  outer loop
    vertex -3.524958103184872e-16 0.3749999999999995 -0.6495190528383292
    vertex -3.524958103184872e-16 0.37500000000000006 0.6495190528383289
    vertex -3.524958103184872e-16 0.5303300858899105 -0.5303300858899107
  endloop
endfacet
facet normal -1.0 0.0 0.0
  outer loop
    vertex -3.524958103184872e-16 0.5303300858899105 -0.5303300858899107
    vertex -3.524958103184872e-16 0.37500000000000006 0.6495190528383289
    vertex -3.524958103184872e-16 0.5303300858899106 0.5303300858899106
  endloop
endfacet
facet normal -1.0 0.0 0.0
  outer loop
    vertex -3.524958103184872e-16 0.5303300858899105 -0.5303300858899107
    vertex -3.524958103184872e-16 0.5303300858899106 0.5303300858899106
    vertex -3.524958103184872e-16 0.6495190528383288 -0.37500000000000033
  endloop
endfacet
facet normal -1.0 0.0 0.0
  outer loop
    vertex -3.524958103184872e-16 0.6495190528383288 -0.37500000000000033
    vertex -3.524958103184872e-16 0.5303300858899106 0.5303300858899106
    vertex -3.524958103184872e-16 0.649519052838329 0.37499999999999994
  endloop
endfacet
facet normal -1.0 0.0 0.0
  outer loop
    vertex -3.524958103184872e-16 0.6495190528383288 -0.37500000000000033
    vertex -3.524958103184872e-16 0.649519052838329 0.37499999999999994
    vertex -3.524958103184872e-16 0.724444369716801 -0.19411428382689117
  endloop
endfacet
facet normal -1.0 0.0 0.0
  outer loop
    vertex -3.524958103184872e-16 0.724444369716801 -0.19411428382689117
    vertex -3.524958103184872e-16 0.649519052838329 0.37499999999999994
    vertex -3.524958103184872e-16 0.7244443697168013 0.19411428382689053
  endloop
endfacet
facet normal -1.0 0.0 0.0
  outer loop
    vertex -3.524958103184872e-16 0.724444369716801 -0.19411428382689117
    vertex -3.524958103184872e-16 0.7244443697168013 0.19411428382689053
    vertex -3.524958103184872e-16 0.75 0.0
  endloop
endfacet
facet normal 0.0 0.9914448613738106 0.13052619222005135
  outer loop
    vertex -3.524958103184872e-16 0.7244443697168013 0.19411428382689053
    vertex 3.0 0.75 0.0
    vertex -3.524958103184872e-16 0.75 0.0
  endloop
endfacet
facet normal 0.0 0.9914448613738106 0.13052619222005135
  outer loop
    vertex 3.0 0.75 0.0
    vertex -3.524958103184872e-16 0.7244443697168013 0.19411428382689053
    vertex 3.0 0.7244443697168013 0.19411428382689053
  endloop
endfacet
facet normal 0.0 0.9914448613738105 -0.1305261922200518
  outer loop
    vertex -3.524958103184872e-16 0.75 0.0
    vertex 3.0 0.724444369716801 -0.19411428382689117
    vertex -3.524958103184872e-16 0.724444369716801 -0.19411428382689117
  endloop
endfacet
facet normal 0.0 0.9914448613738105 -0.1305261922200518
  outer loop
    vertex 3.0 0.724444369716801 -0.19411428382689117
    vertex -3.524958103184872e-16 0.75 0.0
    vertex 3.0 0.75 0.0
  endloop
endfacet
facet normal 0.0 0.9238795325112866 -0.38268343236509056
  outer loop
    vertex -3.524958103184872e-16 0.724444369716801 -0.19411428382689117
    vertex 3.0 0.6495190528383288 -0.37500000000000033
    vertex -3.524958103184872e-16 0.6495190528383288 -0.37500000000000033
  endloop
endfacet
facet normal 0.0 0.9238795325112866 -0.38268343236509056
  outer loop
    vertex 3.0 0.6495190528383288 -0.37500000000000033
    vertex -3.524958103184872e-16 0.724444369716801 -0.19411428382689117
    vertex 3.0 0.724444369716801 -0.19411428382689117
  endloop
endfacet
facet normal 0.0 0.7933533402912348 -0.6087614290087211
  outer loop
    vertex -3.524958103184872e-16 0.6495190528383288 -0.37500000000000033
    vertex 3.0 0.5303300858899105 -0.5303300858899107
    vertex -3.524958103184872e-16 0.5303300858899105 -0.5303300858899107
  endloop
endfacet
facet normal 0.0 0.7933533402912348 -0.6087614290087211
  outer loop
    vertex 3.0 0.5303300858899105 -0.5303300858899107
    vertex -3.524958103184872e-16 0.6495190528383288 -0.37500000000000033
    vertex 3.0 0.6495190528383288 -0.37500000000000033
  endloop
endfacet
facet normal 0.0 0.6087614290087202 -0.7933533402912355
  outer loop
    vertex 3.0 0.5303300858899105 -0.5303300858899107
    vertex -3.524958103184872e-16 0.3749999999999995 -0.6495190528383292
    vertex -3.524958103184872e-16 0.5303300858899105 -0.5303300858899107
  endloop
endfacet
facet normal 0.0 0.6087614290087202 -0.7933533402912355
  outer loop
    vertex -3.524958103184872e-16 0.3749999999999995 -0.6495190528383292
    vertex 3.0 0.5303300858899105 -0.5303300858899107
    vertex 3.0 0.3749999999999995 -0.6495190528383292
  endloop
endfacet
facet normal 0.0 0.3826834323650895 -0.9238795325112868
  outer loop
    vertex 3.0 0.3749999999999995 -0.6495190528383292
    vertex -3.524958103184872e-16 0.1941142838268902 -0.7244443697168013
    vertex -3.524958103184872e-16 0.3749999999999995 -0.6495190528383292
  endloop
endfacet
facet normal 0.0 0.3826834323650895 -0.9238795325112868
  outer loop
    vertex -3.524958103184872e-16 0.1941142838268902 -0.7244443697168013
    vertex 3.0 0.3749999999999995 -0.6495190528383292
    vertex 3.0 0.1941142838268902 -0.7244443697168013
  endloop
endfacet
facet normal 0.0 0.13052619222005102 -0.9914448613738105
  outer loop
    vertex 3.0 0.1941142838268902 -0.7244443697168013
    vertex -3.524958103184872e-16 -1.3777276490407721e-16 -0.75
    vertex -3.524958103184872e-16 0.1941142838268902 -0.7244443697168013
  endloop
endfacet
facet normal 0.0 0.13052619222005102 -0.9914448613738105
  outer loop
    vertex -3.524958103184872e-16 -1.3777276490407721e-16 -0.75
    vertex 3.0 0.1941142838268902 -0.7244443697168013
    vertex 3.0 -1.3777276490407721e-16 -0.75
  endloop
endfacet
facet normal 0.0 -0.13052619222005188 -0.9914448613738105
  outer loop
    vertex 3.0 -1.3777276490407721e-16 -0.75
    vertex -3.524958103184872e-16 -0.19411428382689114 -0.724444369716801
    vertex -3.524958103184872e-16 -1.3777276490407721e-16 -0.75
  endloop
endfacet
facet normal 0.0 -0.13052619222005188 -0.9914448613738105
  outer loop
    vertex -3.524958103184872e-16 -0.19411428382689114 -0.724444369716801
    vertex 3.0 -1.3777276490407721e-16 -0.75
    vertex 3.0 -0.19411428382689114 -0.724444369716801
  endloop
endfacet
facet normal -0.0 -0.3826834323650901 -0.9238795325112868
  outer loop
    vertex 3.0 -0.19411428382689114 -0.724444369716801
    vertex -3.524958103184872e-16 -0.37500000000000033 -0.6495190528383289
    vertex -3.524958103184872e-16 -0.19411428382689114 -0.724444369716801
  endloop
endfacet
facet normal -0.0 -0.3826834323650901 -0.9238795325112868
  outer loop
    vertex -3.524958103184872e-16 -0.37500000000000033 -0.6495190528383289
    vertex 3.0 -0.19411428382689114 -0.724444369716801
    vertex 3.0 -0.37500000000000033 -0.6495190528383289
  endloop
endfacet
facet normal -0.0 -0.6087614290087214 -0.7933533402912345
  outer loop
    vertex 3.0 -0.37500000000000033 -0.6495190528383289
    vertex -3.524958103184872e-16 -0.5303300858899109 -0.5303300858899103
    vertex -3.524958103184872e-16 -0.37500000000000033 -0.6495190528383289
  endloop
endfacet
facet normal -0.0 -0.6087614290087214 -0.7933533402912345
  outer loop
    vertex -3.524958103184872e-16 -0.5303300858899109 -0.5303300858899103
    vertex 3.0 -0.37500000000000033 -0.6495190528383289
    vertex 3.0 -0.5303300858899109 -0.5303300858899103
  endloop
endfacet
facet normal -0.0 -0.7933533402912355 -0.6087614290087202
  outer loop
    vertex 3.0 -0.649519052838329 -0.3749999999999998
    vertex -3.524958103184872e-16 -0.5303300858899109 -0.5303300858899103
    vertex 3.0 -0.5303300858899109 -0.5303300858899103
  endloop
endfacet
facet normal -0.0 -0.7933533402912355 -0.6087614290087202
  outer loop
    vertex -3.524958103184872e-16 -0.5303300858899109 -0.5303300858899103
    vertex 3.0 -0.649519052838329 -0.3749999999999998
    vertex -3.524958103184872e-16 -0.649519052838329 -0.3749999999999998
  endloop
endfacet
facet normal -0.0 -0.9238795325112867 -0.3826834323650899
  outer loop
    vertex 3.0 -0.7244443697168013 -0.19411428382689025
    vertex -3.524958103184872e-16 -0.649519052838329 -0.3749999999999998
    vertex 3.0 -0.649519052838329 -0.3749999999999998
  endloop
endfacet
facet normal -0.0 -0.9238795325112867 -0.3826834323650899
  outer loop
    vertex -3.524958103184872e-16 -0.649519052838329 -0.3749999999999998
    vertex 3.0 -0.7244443697168013 -0.19411428382689025
    vertex -3.524958103184872e-16 -0.7244443697168013 -0.19411428382689025
  endloop
endfacet
facet normal -0.0 -0.9914448613738105 -0.13052619222005102
  outer loop
    vertex 3.0 -0.75 9.184850993605148e-17
    vertex -3.524958103184872e-16 -0.7244443697168013 -0.19411428382689025
    vertex 3.0 -0.7244443697168013 -0.19411428382689025
  endloop
endfacet
facet normal -0.0 -0.9914448613738105 -0.13052619222005102
  outer loop
    vertex -3.524958103184872e-16 -0.7244443697168013 -0.19411428382689025
    vertex 3.0 -0.75 9.184850993605148e-17
    vertex -3.524958103184872e-16 -0.75 9.184850993605148e-17
  endloop
endfacet
facet normal 0.0 -0.9914448613738105 0.13052619222005168
  outer loop
    vertex 3.0 -0.7244443697168012 0.19411428382689075
    vertex -3.524958103184872e-16 -0.75 9.184850993605148e-17
    vertex 3.0 -0.75 9.184850993605148e-17
  endloop
endfacet
facet normal 0.0 -0.9914448613738105 0.13052619222005168
  outer loop
    vertex -3.524958103184872e-16 -0.75 9.184850993605148e-17
    vertex 3.0 -0.7244443697168012 0.19411428382689075
    vertex -3.524958103184872e-16 -0.7244443697168012 0.19411428382689075
  endloop
endfacet
facet normal 0.0 -0.9238795325112866 0.38268343236508984
  outer loop
    vertex 3.0 -0.6495190528383289 0.3750000000000002
    vertex -3.524958103184872e-16 -0.7244443697168012 0.19411428382689075
    vertex 3.0 -0.7244443697168012 0.19411428382689075
  endloop
endfacet
facet normal 0.0 -0.9238795325112866 0.38268343236508984
  outer loop
    vertex -3.524958103184872e-16 -0.7244443697168012 0.19411428382689075
    vertex 3.0 -0.6495190528383289 0.3750000000000002
    vertex -3.524958103184872e-16 -0.6495190528383289 0.3750000000000002
  endloop
endfacet
facet normal 0.0 -0.7933533402912348 0.6087614290087211
  outer loop
    vertex 3.0 -0.5303300858899106 0.5303300858899106
    vertex -3.524958103184872e-16 -0.6495190528383289 0.3750000000000002
    vertex 3.0 -0.6495190528383289 0.3750000000000002
  endloop
endfacet
facet normal 0.0 -0.7933533402912348 0.6087614290087211
  outer loop
    vertex -3.524958103184872e-16 -0.6495190528383289 0.3750000000000002
    vertex 3.0 -0.5303300858899106 0.5303300858899106
    vertex -3.524958103184872e-16 -0.5303300858899106 0.5303300858899106
  endloop
endfacet
facet normal 0.0 -0.6087614290087204 0.7933533402912353
  outer loop
    vertex 3.0 -0.5303300858899106 0.5303300858899106
    vertex -3.524958103184872e-16 -0.3749999999999998 0.649519052838329
    vertex -3.524958103184872e-16 -0.5303300858899106 0.5303300858899106
  endloop
endfacet
facet normal 0.0 -0.6087614290087204 0.7933533402912353
  outer loop
    vertex -3.524958103184872e-16 -0.3749999999999998 0.649519052838329
    vertex 3.0 -0.5303300858899106 0.5303300858899106
    vertex 3.0 -0.3749999999999998 0.649519052838329
  endloop
endfacet
facet normal -0.0 -0.3826834323650898 0.9238795325112867
  outer loop
    vertex 3.0 -0.3749999999999998 0.649519052838329
    vertex -3.524958103184872e-16 -0.19411428382689047 0.7244443697168013
    vertex -3.524958103184872e-16 -0.3749999999999998 0.649519052838329
  endloop
endfacet
facet normal -0.0 -0.3826834323650898 0.9238795325112867
  outer loop
    vertex -3.524958103184872e-16 -0.19411428382689047 0.7244443697168013
    vertex 3.0 -0.3749999999999998 0.649519052838329
    vertex 3.0 -0.19411428382689047 0.7244443697168013
  endloop
endfacet
facet normal -0.0 0.3826834323650897 0.9238795325112867
  outer loop
    vertex 3.0 0.19411428382689072 0.7244443697168012
    vertex -3.524958103184872e-16 0.37500000000000006 0.6495190528383289
    vertex -3.524958103184872e-16 0.19411428382689072 0.7244443697168012
  endloop
endfacet
facet normal -0.0 0.3826834323650897 0.9238795325112867
  outer loop
    vertex -3.524958103184872e-16 0.37500000000000006 0.6495190528383289
    vertex 3.0 0.19411428382689072 0.7244443697168012
    vertex 3.0 0.37500000000000006 0.6495190528383289
  endloop
endfacet
facet normal 0.0 0.6087614290087207 0.7933533402912352
  outer loop
    vertex 3.0 0.37500000000000006 0.6495190528383289
    vertex -3.524958103184872e-16 0.5303300858899106 0.5303300858899106
    vertex -3.524958103184872e-16 0.37500000000000006 0.6495190528383289
  endloop
endfacet
facet normal 0.0 0.6087614290087207 0.7933533402912352
  outer loop
    vertex -3.524958103184872e-16 0.5303300858899106 0.5303300858899106
    vertex 3.0 0.37500000000000006 0.6495190528383289
    vertex 3.0 0.5303300858899106 0.5303300858899106
  endloop
endfacet
facet normal 0.0 0.7933533402912354 0.6087614290087207
  outer loop
    vertex -3.524958103184872e-16 0.5303300858899106 0.5303300858899106
    vertex 3.0 0.649519052838329 0.37499999999999994
    vertex -3.524958103184872e-16 0.649519052838329 0.37499999999999994
  endloop
endfacet
facet normal 0.0 0.7933533402912354 0.6087614290087207
  outer loop
    vertex 3.0 0.649519052838329 0.37499999999999994
    vertex -3.524958103184872e-16 0.5303300858899106 0.5303300858899106
    vertex 3.0 0.5303300858899106 0.5303300858899106
  endloop
endfacet
facet normal 0.0 0.9238795325112868 0.38268343236508967
  outer loop
    vertex -3.524958103184872e-16 0.649519052838329 0.37499999999999994
    vertex 3.0 0.7244443697168013 0.19411428382689053
    vertex -3.524958103184872e-16 0.7244443697168013 0.19411428382689053
  endloop
endfacet
facet normal 0.0 0.9238795325112868 0.38268343236508967
  outer loop
    vertex 3.0 0.7244443697168013 0.19411428382689053
    vertex -3.524958103184872e-16 0.649519052838329 0.37499999999999994
    vertex 3.0 0.649519052838329 0.37499999999999994
  endloop
endfacet
facet normal 3.7460315256936387e-19 1.4846147130560576e-19 -1.0
  outer loop
    vertex 3.0000000000001017 6.000000000000001 -0.7500000000000003
    vertex 3.0000000000001017 -0.19411428382689067 -0.7500000000000003
    vertex 3.0 -1.3777276490407721e-16 -0.75
  endloop
endfacet
facet normal 3.7460315256936387e-19 1.4846147130560576e-19 -1.0
  outer loop
    vertex 3.0000000000001017 -0.19411428382689067 -0.7500000000000003
    vertex 3.0000000000001017 6.000000000000001 -0.7500000000000003
    vertex 101.0 6.000000000000001 -0.7500000000000003
  endloop
endfacet
facet normal 3.7460315256936387e-19 1.4846147130560576e-19 -1.0
  outer loop
    vertex 3.0000000000001017 -0.19411428382689067 -0.7500000000000003
    vertex 101.0 6.000000000000001 -0.7500000000000003
    vertex 3.0000000000001017 -6.0 -0.7500000000000003
  endloop
endfacet
facet normal 3.7460315256936387e-19 1.4846147130560576e-19 -1.0
  outer loop
    vertex 3.0000000000001017 -6.0 -0.7500000000000003
    vertex 101.0 6.000000000000001 -0.7500000000000003
    vertex 101.0 -6.0 -0.7500000000000003
  endloop
endfacet
facet normal 3.7460315256936387e-19 1.4846147130560576e-19 -1.0
  outer loop
    vertex 101.0 -6.0 -0.7500000000000003
    vertex 101.0 6.000000000000001 -0.7500000000000003
    vertex 101.0 -1.3777276490407721e-16 -0.75
  endloop
endfacet
facet normal -1.0 -5.997096506358713e-30 -1.302880110221736e-14
  outer loop
    vertex 101.0 0.0 0.0
    vertex 101.0 -0.7244443697168013 -0.19411428382689025
    vertex 101.0 -0.75 4.592425496802574e-17
  endloop
endfacet
facet normal -1.0 -5.997096506358713e-30 -1.302880110221736e-14
  outer loop
    vertex 101.0 -0.7244443697168013 -0.19411428382689025
    vertex 101.0 0.0 0.0
    vertex 101.0 -0.649519052838329 -0.3749999999999998
  endloop
endfacet
facet normal -1.0 -5.997096506358713e-30 -1.302880110221736e-14
  outer loop
    vertex 101.0 -0.649519052838329 -0.3749999999999998
    vertex 101.0 0.0 0.0
    vertex 101.0 -0.5303300858899109 -0.5303300858899103
  endloop
endfacet
facet normal -1.0 -5.997096506358713e-30 -1.302880110221736e-14
  outer loop
    vertex 101.0 -0.5303300858899109 -0.5303300858899103
    vertex 101.0 0.0 0.0
    vertex 101.0 -0.37500000000000033 -0.6495190528383289
  endloop
endfacet
facet normal -1.0 -5.997096506358713e-30 -1.302880110221736e-14
  outer loop
    vertex 101.0 -0.37500000000000033 -0.6495190528383289
    vertex 101.0 0.0 0.0
    vertex 101.0 -0.19411428382689114 -0.724444369716801
  endloop
endfacet
facet normal -1.0 -5.997096506358713e-30 -1.302880110221736e-14
  outer loop
    vertex 101.0 -0.19411428382689114 -0.724444369716801
    vertex 101.0 0.0 0.0
    vertex 101.0 -1.3777276490407721e-16 -0.75
  endloop
endfacet
facet normal -1.0 -5.997096506358713e-30 -1.302880110221736e-14
  outer loop
    vertex 101.0 -1.3777276490407721e-16 -0.75
    vertex 101.0 0.0 0.0
    vertex 101.0 0.1941142838268902 -0.7244443697168013
  endloop
endfacet
facet normal -1.0 -5.997096506358713e-30 -1.302880110221736e-14
  outer loop
    vertex 101.0 0.1941142838268902 -0.7244443697168013
    vertex 101.0 0.0 0.0
    vertex 101.0 0.75 0.0
  endloop
endfacet
facet normal -1.0 -5.997096506358713e-30 -1.302880110221736e-14
  outer loop
    vertex 101.0 0.1941142838268902 -0.7244443697168013
    vertex 101.0 0.75 0.0
    vertex 101.0 0.3749999999999995 -0.6495190528383292
  endloop
endfacet
facet normal -1.0 -5.997096506358713e-30 -1.302880110221736e-14
  outer loop
    vertex 101.0 0.3749999999999995 -0.6495190528383292
    vertex 101.0 0.75 0.0
    vertex 101.0 0.5303300858899105 -0.5303300858899107
  endloop
endfacet
facet normal -1.0 -5.997096506358713e-30 -1.302880110221736e-14
  outer loop
    vertex 101.0 0.5303300858899105 -0.5303300858899107
    vertex 101.0 0.75 0.0
    vertex 101.0 0.6495190528383288 -0.37500000000000033
  endloop
endfacet
facet normal -1.0 -5.997096506358713e-30 -1.302880110221736e-14
  outer loop
    vertex 101.0 0.6495190528383288 -0.37500000000000033
    vertex 101.0 0.75 0.0
    vertex 101.0 0.724444369716801 -0.19411428382689117
  endloop
endfacet
facet normal 0.0 -0.6087614290087214 -0.7933533402912345
  outer loop
    vertex 103.99999999999999 -0.37500000000000033 -0.6495190528383289
    vertex 101.0 -0.5303300858899109 -0.5303300858899103
    vertex 101.0 -0.37500000000000033 -0.6495190528383289
  endloop
endfacet
facet normal 0.0 -0.6087614290087214 -0.7933533402912345
  outer loop
    vertex 101.0 -0.5303300858899109 -0.5303300858899103
    vertex 103.99999999999999 -0.37500000000000033 -0.6495190528383289
    vertex 103.99999999999999 -0.5303300858899109 -0.5303300858899103
  endloop
endfacet
facet normal 0.0 -0.3826834323650901 -0.9238795325112868
  outer loop
    vertex 103.99999999999999 -0.19411428382689114 -0.724444369716801
    vertex 101.0 -0.37500000000000033 -0.6495190528383289
    vertex 101.0 -0.19411428382689114 -0.724444369716801
  endloop
endfacet
facet normal 0.0 -0.3826834323650901 -0.9238795325112868
  outer loop
    vertex 101.0 -0.37500000000000033 -0.6495190528383289
    vertex 103.99999999999999 -0.19411428382689114 -0.724444369716801
    vertex 103.99999999999999 -0.37500000000000033 -0.6495190528383289
  endloop
endfacet
facet normal 1.1130451628624267e-31 -0.13052619222005188 -0.9914448613738105
  outer loop
    vertex 103.99999999999999 -1.3777276490407721e-16 -0.75
    vertex 101.0 -0.19411428382689114 -0.724444369716801
    vertex 101.0 -1.3777276490407721e-16 -0.75
  endloop
endfacet
facet normal 1.1130451628624267e-31 -0.13052619222005188 -0.9914448613738105
  outer loop
    vertex 101.0 -0.19411428382689114 -0.724444369716801
    vertex 103.99999999999999 -1.3777276490407721e-16 -0.75
    vertex 103.99999999999999 -0.19411428382689114 -0.724444369716801
  endloop
endfacet
facet normal -1.8020344039773406e-33 0.13052619222005102 -0.9914448613738105
  outer loop
    vertex 103.99999999999999 0.1941142838268902 -0.7244443697168013
    vertex 101.0 -1.3777276490407721e-16 -0.75
    vertex 101.0 0.1941142838268902 -0.7244443697168013
  endloop
endfacet
facet normal -1.8020344039773406e-33 0.13052619222005102 -0.9914448613738105
  outer loop
    vertex 101.0 -1.3777276490407721e-16 -0.75
    vertex 103.99999999999999 0.1941142838268902 -0.7244443697168013
    vertex 103.99999999999999 -1.3777276490407721e-16 -0.75
  endloop
endfacet
facet normal 0.0 0.3826834323650895 -0.9238795325112868
  outer loop
    vertex 103.99999999999999 0.3749999999999995 -0.6495190528383292
    vertex 101.0 0.1941142838268902 -0.7244443697168013
    vertex 101.0 0.3749999999999995 -0.6495190528383292
  endloop
endfacet
facet normal 0.0 0.3826834323650895 -0.9238795325112868
  outer loop
    vertex 101.0 0.1941142838268902 -0.7244443697168013
    vertex 103.99999999999999 0.3749999999999995 -0.6495190528383292
    vertex 103.99999999999999 0.1941142838268902 -0.7244443697168013
  endloop
endfacet
facet normal 0.0 0.6087614290087202 -0.7933533402912355
  outer loop
    vertex 103.99999999999999 0.5303300858899105 -0.5303300858899107
    vertex 101.0 0.3749999999999995 -0.6495190528383292
    vertex 101.0 0.5303300858899105 -0.5303300858899107
  endloop
endfacet
facet normal 0.0 0.6087614290087202 -0.7933533402912355
  outer loop
    vertex 101.0 0.3749999999999995 -0.6495190528383292
    vertex 103.99999999999999 0.5303300858899105 -0.5303300858899107
    vertex 103.99999999999999 0.3749999999999995 -0.6495190528383292
  endloop
endfacet
facet normal 0.0 0.7933533402912348 -0.6087614290087211
  outer loop
    vertex 101.0 0.6495190528383288 -0.37500000000000033
    vertex 103.99999999999999 0.5303300858899105 -0.5303300858899107
    vertex 101.0 0.5303300858899105 -0.5303300858899107
  endloop
endfacet
facet normal 0.0 0.7933533402912348 -0.6087614290087211
  outer loop
    vertex 103.99999999999999 0.5303300858899105 -0.5303300858899107
    vertex 101.0 0.6495190528383288 -0.37500000000000033
    vertex 103.99999999999999 0.6495190528383288 -0.37500000000000033
  endloop
endfacet
facet normal 0.0 0.9238795325112866 -0.38268343236509056
  outer loop
    vertex 101.0 0.724444369716801 -0.19411428382689117
    vertex 103.99999999999999 0.6495190528383288 -0.37500000000000033
    vertex 101.0 0.6495190528383288 -0.37500000000000033
  endloop
endfacet
facet normal 0.0 0.9238795325112866 -0.38268343236509056
  outer loop
    vertex 103.99999999999999 0.6495190528383288 -0.37500000000000033
    vertex 101.0 0.724444369716801 -0.19411428382689117
    vertex 103.99999999999999 0.724444369716801 -0.19411428382689117
  endloop
endfacet
facet normal -8.496786739236047e-20 0.9914448613738105 -0.13052619222005182
  outer loop
    vertex 101.0 0.75 0.0
    vertex 103.99999999999999 0.724444369716801 -0.19411428382689117
    vertex 101.0 0.724444369716801 -0.19411428382689117
  endloop
endfacet
facet normal -8.496786739236047e-20 0.9914448613738105 -0.13052619222005182
  outer loop
    vertex 103.99999999999999 0.724444369716801 -0.19411428382689117
    vertex 101.0 0.75 0.0
    vertex 103.99999999999999 0.75 0.0
  endloop
endfacet
facet normal 1.6864592855325362e-19 0.9914448613738105 0.13052619222005132
  outer loop
    vertex 101.0 0.7244443697168013 0.19411428382689053
    vertex 103.99999999999999 0.75 0.0
    vertex 101.0 0.75 0.0
  endloop
endfacet
facet normal 1.6864592855325362e-19 0.9914448613738105 0.13052619222005132
  outer loop
    vertex 103.99999999999999 0.75 0.0
    vertex 101.0 0.7244443697168013 0.19411428382689053
    vertex 103.99999999999999 0.7244443697168013 0.19411428382689053
  endloop
endfacet
facet normal -0.0 0.9238795325112868 0.38268343236508967
  outer loop
    vertex 101.0 0.649519052838329 0.37499999999999994
    vertex 103.99999999999999 0.7244443697168013 0.19411428382689053
    vertex 101.0 0.7244443697168013 0.19411428382689053
  endloop
endfacet
facet normal -0.0 0.9238795325112868 0.38268343236508967
  outer loop
    vertex 103.99999999999999 0.7244443697168013 0.19411428382689053
    vertex 101.0 0.649519052838329 0.37499999999999994
    vertex 103.99999999999999 0.649519052838329 0.37499999999999994
  endloop
endfacet
facet normal -0.0 0.7933533402912354 0.6087614290087207
  outer loop
    vertex 101.0 0.5303300858899106 0.5303300858899106
    vertex 103.99999999999999 0.649519052838329 0.37499999999999994
    vertex 101.0 0.649519052838329 0.37499999999999994
  endloop
endfacet
facet normal -0.0 0.7933533402912354 0.6087614290087207
  outer loop
    vertex 103.99999999999999 0.649519052838329 0.37499999999999994
    vertex 101.0 0.5303300858899106 0.5303300858899106
    vertex 103.99999999999999 0.5303300858899106 0.5303300858899106
  endloop
endfacet
facet normal -0.0 0.6087614290087207 0.7933533402912352
  outer loop
    vertex 103.99999999999999 0.37500000000000006 0.6495190528383289
    vertex 101.0 0.5303300858899106 0.5303300858899106
    vertex 101.0 0.37500000000000006 0.6495190528383289
  endloop
endfacet
facet normal -0.0 0.6087614290087207 0.7933533402912352
  outer loop
    vertex 101.0 0.5303300858899106 0.5303300858899106
    vertex 103.99999999999999 0.37500000000000006 0.6495190528383289
    vertex 103.99999999999999 0.5303300858899106 0.5303300858899106
  endloop
endfacet
facet normal 2.560670870574397e-16 0.38268343236509345 0.9238795325112854
  outer loop
    vertex 103.99999999999999 0.19411428382689072 0.7244443697168012
    vertex 101.0 0.37500000000000006 0.6495190528383289
    vertex 101.0 0.1941142838268907 0.7244443697168028
  endloop
endfacet
facet normal 2.560670870574397e-16 0.38268343236509345 0.9238795325112854
  outer loop
    vertex 101.0 0.37500000000000006 0.6495190528383289
    vertex 103.99999999999999 0.19411428382689072 0.7244443697168012
    vertex 103.99999999999999 0.37500000000000006 0.6495190528383289
  endloop
endfacet
facet normal 2.762552216010273e-16 0.1305261922200475 0.9914448613738109
  outer loop
    vertex 101.0 4.592425496802574e-17 0.75
    vertex 103.99999999999999 0.19411428382689072 0.7244443697168012
    vertex 101.0 0.1941142838268907 0.7244443697168028
  endloop
endfacet
facet normal 2.762552216010273e-16 0.1305261922200475 0.9914448613738109
  outer loop
    vertex 103.99999999999999 0.19411428382689072 0.7244443697168012
    vertex 101.0 4.592425496802574e-17 0.75
    vertex 103.99999999999999 4.592425496802574e-17 0.75
  endloop
endfacet
facet normal 5.418026634305233e-16 -0.13052619222004308 0.9914448613738116
  outer loop
    vertex 103.99999999999999 -0.19411428382689047 0.7244443697168013
    vertex 101.0 4.592425496802574e-17 0.75
    vertex 101.0 -0.19411428382689128 0.7244443697168044
  endloop
endfacet
facet normal 5.418026634305233e-16 -0.13052619222004308 0.9914448613738116
  outer loop
    vertex 101.0 4.592425496802574e-17 0.75
    vertex 103.99999999999999 -0.19411428382689047 0.7244443697168013
    vertex 103.99999999999999 4.592425496802574e-17 0.75
  endloop
endfacet
facet normal 5.411721805515041e-16 -0.3826834323650975 0.9238795325112836
  outer loop
    vertex 101.0 -0.3749999999999998 0.649519052838329
    vertex 103.99999999999999 -0.19411428382689047 0.7244443697168013
    vertex 101.0 -0.19411428382689128 0.7244443697168044
  endloop
endfacet
facet normal 5.411721805515041e-16 -0.3826834323650975 0.9238795325112836
  outer loop
    vertex 103.99999999999999 -0.19411428382689047 0.7244443697168013
    vertex 101.0 -0.3749999999999998 0.649519052838329
    vertex 103.99999999999999 -0.3749999999999998 0.649519052838329
  endloop
endfacet
facet normal 0.0 -0.6087614290087204 0.7933533402912353
  outer loop
    vertex 103.99999999999999 -0.5303300858899106 0.5303300858899106
    vertex 101.0 -0.3749999999999998 0.649519052838329
    vertex 101.0 -0.5303300858899106 0.5303300858899106
  endloop
endfacet
facet normal 0.0 -0.6087614290087204 0.7933533402912353
  outer loop
    vertex 101.0 -0.3749999999999998 0.649519052838329
    vertex 103.99999999999999 -0.5303300858899106 0.5303300858899106
    vertex 103.99999999999999 -0.3749999999999998 0.649519052838329
  endloop
endfacet
facet normal 0.0 -0.7933533402912348 0.6087614290087211
  outer loop
    vertex 103.99999999999999 -0.5303300858899106 0.5303300858899106
    vertex 101.0 -0.6495190528383289 0.3750000000000002
    vertex 103.99999999999999 -0.6495190528383289 0.3750000000000002
  endloop
endfacet
facet normal 0.0 -0.7933533402912348 0.6087614290087211
  outer loop
    vertex 101.0 -0.6495190528383289 0.3750000000000002
    vertex 103.99999999999999 -0.5303300858899106 0.5303300858899106
    vertex 101.0 -0.5303300858899106 0.5303300858899106
  endloop
endfacet
facet normal 0.0 -0.9238795325112866 0.38268343236508984
  outer loop
    vertex 103.99999999999999 -0.6495190528383289 0.3750000000000002
    vertex 101.0 -0.7244443697168012 0.19411428382689075
    vertex 103.99999999999999 -0.7244443697168012 0.19411428382689075
  endloop
endfacet
facet normal 0.0 -0.9238795325112866 0.38268343236508984
  outer loop
    vertex 101.0 -0.7244443697168012 0.19411428382689075
    vertex 103.99999999999999 -0.6495190528383289 0.3750000000000002
    vertex 101.0 -0.6495190528383289 0.3750000000000002
  endloop
endfacet
facet normal 1.3348487200810677e-17 -0.9914448613738105 0.1305261922200519
  outer loop
    vertex 103.99999999999999 -0.75 9.184850993605148e-17
    vertex 101.0 -0.7244443697168012 0.19411428382689075
    vertex 101.0 -0.75 4.592425496802574e-17
  endloop
endfacet
facet normal 1.3348487200810677e-17 -0.9914448613738105 0.1305261922200519
  outer loop
    vertex 101.0 -0.7244443697168012 0.19411428382689075
    vertex 103.99999999999999 -0.75 9.184850993605148e-17
    vertex 103.99999999999999 -0.7244443697168012 0.19411428382689075
  endloop
endfacet
facet normal 1.561819607257581e-17 -0.9914448613738105 -0.13052619222005127
  outer loop
    vertex 103.99999999999999 -0.75 9.184850993605148e-17
    vertex 101.0 -0.7244443697168013 -0.19411428382689025
    vertex 103.99999999999999 -0.7244443697168013 -0.19411428382689025
  endloop
endfacet
facet normal 1.561819607257581e-17 -0.9914448613738105 -0.13052619222005127
  outer loop
    vertex 101.0 -0.7244443697168013 -0.19411428382689025
    vertex 103.99999999999999 -0.75 9.184850993605148e-17
    vertex 101.0 -0.75 4.592425496802574e-17
  endloop
endfacet
facet normal 0.0 -0.9238795325112867 -0.3826834323650899
  outer loop
    vertex 103.99999999999999 -0.7244443697168013 -0.19411428382689025
    vertex 101.0 -0.649519052838329 -0.3749999999999998
    vertex 103.99999999999999 -0.649519052838329 -0.3749999999999998
  endloop
endfacet
facet normal 0.0 -0.9238795325112867 -0.3826834323650899
  outer loop
    vertex 101.0 -0.649519052838329 -0.3749999999999998
    vertex 103.99999999999999 -0.7244443697168013 -0.19411428382689025
    vertex 101.0 -0.7244443697168013 -0.19411428382689025
  endloop
endfacet
facet normal 0.0 -0.7933533402912355 -0.6087614290087202
  outer loop
    vertex 103.99999999999999 -0.649519052838329 -0.3749999999999998
    vertex 101.0 -0.5303300858899109 -0.5303300858899103
    vertex 103.99999999999999 -0.5303300858899109 -0.5303300858899103
  endloop
endfacet
facet normal 0.0 -0.7933533402912355 -0.6087614290087202
  outer loop
    vertex 101.0 -0.5303300858899109 -0.5303300858899103
    vertex 103.99999999999999 -0.649519052838329 -0.3749999999999998
    vertex 101.0 -0.649519052838329 -0.3749999999999998
  endloop
endfacet
facet normal 1.0 -3.46314278712272e-30 -6.250943729013357e-15
  outer loop
    vertex 101.0 0.0 0.0
    vertex 101.0 -0.7244443697168012 0.19411428382689075
    vertex 101.0 -0.75 4.592425496802574e-17
  endloop
endfacet
facet normal 1.0 -3.46314278712272e-30 -6.250943729013357e-15
  outer loop
    vertex 101.0 -0.7244443697168012 0.19411428382689075
    vertex 101.0 0.0 0.0
    vertex 101.0 -0.6495190528383289 0.3750000000000002
  endloop
endfacet
facet normal 1.0 -3.46314278712272e-30 -6.250943729013357e-15
  outer loop
    vertex 101.0 -0.6495190528383289 0.3750000000000002
    vertex 101.0 0.0 0.0
    vertex 101.0 -0.5303300858899106 0.5303300858899106
  endloop
endfacet
facet normal 1.0 -3.46314278712272e-30 -6.250943729013357e-15
  outer loop
    vertex 101.0 -0.5303300858899106 0.5303300858899106
    vertex 101.0 0.0 0.0
    vertex 101.0 -0.3749999999999998 0.649519052838329
  endloop
endfacet
facet normal 1.0 -3.46314278712272e-30 -6.250943729013357e-15
  outer loop
    vertex 101.0 -0.3749999999999998 0.649519052838329
    vertex 101.0 0.0 0.0
    vertex 101.0 -0.19411428382689128 0.7244443697168044
  endloop
endfacet
facet normal 1.0 -3.46314278712272e-30 -6.250943729013357e-15
  outer loop
    vertex 101.0 -0.19411428382689128 0.7244443697168044
    vertex 101.0 0.0 0.0
    vertex 101.0 0.1941142838268907 0.7244443697168028
  endloop
endfacet
facet normal 1.0 -3.46314278712272e-30 -6.250943729013357e-15
  outer loop
    vertex 101.0 0.1941142838268907 0.7244443697168028
    vertex 101.0 0.0 0.0
    vertex 101.0 0.75 0.0
  endloop
endfacet
facet normal 1.0 -3.46314278712272e-30 -6.250943729013357e-15
  outer loop
    vertex 101.0 0.1941142838268907 0.7244443697168028
    vertex 101.0 0.75 0.0
    vertex 101.0 0.37500000000000006 0.6495190528383289
  endloop
endfacet
facet normal 1.0 -3.46314278712272e-30 -6.250943729013357e-15
  outer loop
    vertex 101.0 0.37500000000000006 0.6495190528383289
    vertex 101.0 0.75 0.0
    vertex 101.0 0.5303300858899106 0.5303300858899106
  endloop
endfacet
facet normal 1.0 -3.46314278712272e-30 -6.250943729013357e-15
  outer loop
    vertex 101.0 0.5303300858899106 0.5303300858899106
    vertex 101.0 0.75 0.0
    vertex 101.0 0.649519052838329 0.37499999999999994
  endloop
endfacet
facet normal 1.0 -3.46314278712272e-30 -6.250943729013357e-15
  outer loop
    vertex 101.0 0.649519052838329 0.37499999999999994
    vertex 101.0 0.75 0.0
    vertex 101.0 0.7244443697168013 0.19411428382689053
  endloop
endfacet
facet normal 1.0 1.6554250517629579e-15 2.040832107029268e-15
  outer loop
    vertex 101.0 6.000000000000001 -0.7500000000000003
    vertex 101.0 0.1941142838268902 -0.7244443697168013
    vertex 101.0 -1.3777276490407721e-16 -0.75
  endloop
endfacet
facet normal 1.0 1.6554250517629579e-15 2.040832107029268e-15
  outer loop
    vertex 101.0 0.1941142838268902 -0.7244443697168013
    vertex 101.0 6.000000000000001 -0.7500000000000003
    vertex 101.0 0.3749999999999995 -0.6495190528383292
  endloop
endfacet
facet normal 1.0 1.6554250517629579e-15 2.040832107029268e-15
  outer loop
    vertex 101.0 0.3749999999999995 -0.6495190528383292
    vertex 101.0 6.000000000000001 -0.7500000000000003
    vertex 101.0 0.5303300858899105 -0.5303300858899107
  endloop
endfacet
facet normal 1.0 1.6554250517629579e-15 2.040832107029268e-15
  outer loop
    vertex 101.0 0.5303300858899105 -0.5303300858899107
    vertex 101.0 6.000000000000001 -0.7500000000000003
    vertex 101.0 0.6495190528383288 -0.37500000000000033
  endloop
endfacet
facet normal 1.0 1.6554250517629579e-15 2.040832107029268e-15
  outer loop
    vertex 101.0 0.6495190528383288 -0.37500000000000033
    vertex 101.0 6.000000000000001 -0.7500000000000003
    vertex 101.0 0.724444369716801 -0.19411428382689117
  endloop
endfacet
facet normal 1.0 1.6554250517629579e-15 2.040832107029268e-15
  outer loop
    vertex 101.0 0.724444369716801 -0.19411428382689117
    vertex 101.0 6.000000000000001 -0.7500000000000003
    vertex 101.0 0.75 0.0
  endloop
endfacet
facet normal 1.0 1.6554250517629579e-15 2.040832107029268e-15
  outer loop
    vertex 101.0 0.37500000000000006 0.6495190528383289
    vertex 101.0 6.000000000000001 0.7244443697168023
    vertex 101.0 0.1941142838268907 0.7244443697168028
  endloop
endfacet
facet normal 1.0 1.6554250517629579e-15 2.040832107029268e-15
  outer loop
    vertex 101.0 6.000000000000001 0.7244443697168023
    vertex 101.0 0.37500000000000006 0.6495190528383289
    vertex 101.0 0.5303300858899106 0.5303300858899106
  endloop
endfacet
facet normal 1.0 1.6554250517629579e-15 2.040832107029268e-15
  outer loop
    vertex 101.0 6.000000000000001 0.7244443697168023
    vertex 101.0 0.5303300858899106 0.5303300858899106
    vertex 101.0 0.649519052838329 0.37499999999999994
  endloop
endfacet
facet normal 1.0 1.6554250517629579e-15 2.040832107029268e-15
  outer loop
    vertex 101.0 6.000000000000001 0.7244443697168023
    vertex 101.0 0.649519052838329 0.37499999999999994
    vertex 101.0 0.7244443697168013 0.19411428382689053
  endloop
endfacet
facet normal 1.0 1.6554250517629579e-15 2.040832107029268e-15
  outer loop
    vertex 101.0 6.000000000000001 0.7244443697168023
    vertex 101.0 0.7244443697168013 0.19411428382689053
    vertex 101.0 0.75 0.0
  endloop
endfacet
facet normal 1.0 1.6554250517629579e-15 2.040832107029268e-15
  outer loop
    vertex 101.0 6.000000000000001 0.7244443697168023
    vertex 101.0 0.75 0.0
    vertex 101.0 6.000000000000001 -0.7500000000000003
  endloop
endfacet
facet normal 1.0 1.6554250517629579e-15 2.040832107029268e-15
  outer loop
    vertex 101.0 6.000000000000001 0.7244443697168023
    vertex 101.0 6.000000000000001 -0.7500000000000003
    vertex 101.0 6.000000000000001 0.0
  endloop
endfacet
endsolid 120ventflap0.2
